<svg width="42" height="42" viewBox="0 0 42 42" fill="none" xmlns="http://www.w3.org/2000/svg">
<circle cx="21" cy="21" r="21" fill="#CAFC01"/>
<path d="M22.9392 15.1502C23.5879 14.6052 24.3193 14.1716 25.0919 13.8743C25.8644 13.577 26.6629 13.4218 27.4417 13.4174C28.2205 13.4131 28.9644 13.5598 29.631 13.8491C30.2975 14.1384 30.8736 14.5646 31.3264 15.1035C31.7792 15.6424 32.0998 16.2833 32.2699 16.9897C32.44 17.6962 32.4563 18.4542 32.3178 19.2207C32.1793 19.9871 31.8888 20.7469 31.4629 21.4566C31.0369 22.1663 30.4838 22.8122 29.8352 23.3572L26.3872 19.2537L22.9392 15.1502Z" fill="#91B500"/>
<path d="M22.1207 15.0389C22.9245 14.7712 23.7819 14.6908 24.6441 14.8024C25.5063 14.9139 26.3563 15.2153 27.1456 15.6892C27.9349 16.1631 28.648 16.8004 29.2443 17.5645C29.8405 18.3286 30.3082 19.2047 30.6207 20.1427C30.9332 21.0806 31.0842 22.0622 31.0653 23.0312C31.0464 24.0003 30.8579 24.9379 30.5104 25.7904C30.163 26.643 29.6635 27.3939 29.0405 28.0002C28.4175 28.6066 27.6831 29.0564 26.8793 29.3242L24.5 22.1816L22.1207 15.0389Z" fill="#A8D201"/>
<path d="M18.5 14.8H22.86L27.38 29H23.42L22.56 26.22H18.78L17.94 29H13.96L18.5 14.8ZM21.94 23.62L20.68 18.62L19.36 23.62H21.94Z" fill="black"/>
</svg>
